# xmcd
#
# Track frame offsets:
# 150
# 18720
# 36479
# 50074
# 65452
# 79580
# 97489
# 114559
# 128808
# 141929
# 157864
# 173275
# 190624
# 205511
# 221777
# 238103
# 252145
# 265046
# 286196
# 300963
#
# Disc length: 4229 seconds
#
#
# Revision: 0
# Processed by: cddbd v1.5.2PL0 Copyright (c) Steve Scherf et al.
# Submitted via: FreeRIP 2.951 
#
DISCID=17108314
DTITLE=CHICO REY and PARANÁ - AS 20 MAIS CHICO REY and PARANÁ
DYEAR=2006
DGENRE=Country
TTITLE0=VOCE NÃO SABE AMAR
TTITLE1=DE LÁ PRA CÁ
TTITLE2=LEÃO DOMADO
TTITLE3=CANARINHO PRISONEIRO
TTITLE4=ALMA TRANSPARENTE
TTITLE5=VOLTA PRA MIM
TTITLE6=UM DEGRAU DE ESCADA
TTITLE7=AMOR REBELDE
TTITLE8=TA COM RAIVA DE MIM
TTITLE9=EM FRENTE DO PORTÃO
TTITLE10=TRANQUE A PORTA E ME BEIJA
TTITLE11=QUEM SERÁ SEU OUTRO AMOR
TTITLE12=MINHA SERENATA
TTITLE13=ENCANTO E MAGIA
TTITLE14=CASAL NOTA MIL
TTITLE15=LIGUEI PRA DIZER QUE TE AMO
TTITLE16=TELEFONE NO AR
TTITLE17=CORAÇÃO ABERTO - PART.ESP EDUARDO COSTA
TTITLE18=BLUSA VERMELHA
TTITLE19=DE CARA COM A SAUDADE
EXTD=
EXTT0=
EXTT1=
EXTT2=
EXTT3=
EXTT4=
EXTT5=
EXTT6=
EXTT7=
EXTT8=
EXTT9=
EXTT10=
EXTT11=
EXTT12=
EXTT13=
EXTT14=
EXTT15=
EXTT16=
EXTT17=
EXTT18=
EXTT19=
PLAYORDER=
